<svg width="31" height="25" viewBox="0 0 31 25" fill="none" xmlns="http://www.w3.org/2000/svg">
<path d="M8.386 19.364C7.138 19.364 6.176 19.1387 5.5 18.688C4.84133 18.2373 4.34733 17.7347 4.018 17.18H3.602V19H0.976V0.799999H3.654V7.924H4.07C4.278 7.57733 4.55533 7.248 4.902 6.936C5.24867 6.60667 5.708 6.338 6.28 6.13C6.852 5.922 7.554 5.818 8.386 5.818C9.46067 5.818 10.4487 6.078 11.35 6.598C12.2513 7.118 12.9707 7.872 13.508 8.86C14.0453 9.848 14.314 11.0267 14.314 12.396V12.786C14.314 14.1727 14.0367 15.36 13.482 16.348C12.9447 17.3187 12.2253 18.064 11.324 18.584C10.44 19.104 9.46067 19.364 8.386 19.364ZM7.606 17.024C8.76733 17.024 9.72067 16.6513 10.466 15.906C11.2287 15.1607 11.61 14.0947 11.61 12.708V12.474C11.61 11.1047 11.2373 10.0473 10.492 9.302C9.74667 8.55667 8.78467 8.184 7.606 8.184C6.462 8.184 5.50867 8.55667 4.746 9.302C4.00067 10.0473 3.628 11.1047 3.628 12.474V12.708C3.628 14.0947 4.00067 15.1607 4.746 15.906C5.50867 16.6513 6.462 17.024 7.606 17.024Z" fill="#A287F4"/>
<path d="M17.6323 24.2V6.182H20.2583V8.028H20.6743C21.0036 7.456 21.4976 6.94467 22.1562 6.494C22.8323 6.04333 23.7943 5.818 25.0423 5.818C26.1169 5.818 27.0963 6.078 27.9803 6.598C28.8816 7.118 29.6009 7.872 30.1383 8.86C30.6929 9.83067 30.9703 11.0093 30.9703 12.396V12.786C30.9703 14.1727 30.7016 15.36 30.1643 16.348C29.6269 17.3187 28.9076 18.064 28.0063 18.584C27.1049 19.104 26.1169 19.364 25.0423 19.364C24.2103 19.364 23.5083 19.26 22.9363 19.052C22.3643 18.844 21.9049 18.584 21.5583 18.272C21.2116 17.9427 20.9343 17.6047 20.7263 17.258H20.3103V24.2H17.6323ZM24.2623 17.024C25.4409 17.024 26.4029 16.6513 27.1483 15.906C27.8936 15.1607 28.2663 14.0947 28.2663 12.708V12.474C28.2663 11.1047 27.8849 10.0473 27.1223 9.302C26.3769 8.55667 25.4236 8.184 24.2623 8.184C23.1183 8.184 22.1649 8.55667 21.4023 9.302C20.6569 10.0473 20.2843 11.1047 20.2843 12.474V12.708C20.2843 14.0947 20.6569 15.1607 21.4023 15.906C22.1649 16.6513 23.1183 17.024 24.2623 17.024Z" fill="#219897"/>
</svg>
